<svg xmlns="http://www.w3.org/2000/svg" width="198.089" height="306.14401" viewBox="0 0 52.411048 81.000606"><path fill="#00377c" d="M45.842 0C34.868 0 24.902 4.388 17.6 11.5V0H0v81h17.6V69.502c7.302 7.112 17.268 11.5 28.242 11.5h6.57v-4.92h-6.57c-11.496 0-21.732-5.48-28.241-13.964a35.56 35.56 0 0 1-4.92-8.722V76.08H4.92V4.92h7.76v22.686a35.576 35.576 0 0 1 4.92-8.722C24.11 10.4 34.346 4.92 45.84 4.92h1.65v7.759h-1.65c-15.34 0-27.82 12.48-27.82 27.82 0 15.342 12.48 27.821 27.82 27.821h6.57v-17.6h-6.57c-5.636 0-10.22-4.585-10.22-10.22 0-5.635 4.584-10.22 10.22-10.22h6.57v-4.92h-6.57c-8.348 0-15.14 6.792-15.14 15.14s6.792 15.14 15.14 15.14h1.65v7.76h-1.65c-12.627 0-22.9-10.272-22.9-22.9 0-12.628 10.273-22.9 22.9-22.9h6.57V0Z"/></svg>